<svg width="797" height="31" viewBox="0 0 797 31" fill="none" xmlns="http://www.w3.org/2000/svg">
<path d="M522.25 28.5H529.75C536 28.5 538.5 26 538.5 19.75V12.25C538.5 6 536 3.5 529.75 3.5H522.25C516 3.5 513.5 6 513.5 12.25V19.75C513.5 26 516 28.5 522.25 28.5Z" stroke="#391D2C" stroke-width="1.5" stroke-linecap="round" stroke-linejoin="round"/>
<g opacity="0.4">
<path d="M523.726 22.4377L519.926 18.6377" stroke="#391D2C" stroke-width="1.5" stroke-miterlimit="10" stroke-linecap="round" stroke-linejoin="round"/>
<path d="M523.725 9.5625V22.4375" stroke="#391D2C" stroke-width="1.5" stroke-miterlimit="10" stroke-linecap="round" stroke-linejoin="round"/>
<path d="M528.275 9.5625L532.075 13.3625" stroke="#391D2C" stroke-width="1.5" stroke-miterlimit="10" stroke-linecap="round" stroke-linejoin="round"/>
<path d="M528.275 22.4375V9.5625" stroke="#391D2C" stroke-width="1.5" stroke-miterlimit="10" stroke-linecap="round" stroke-linejoin="round"/>
</g>
<path opacity="0.4" d="M17.6621 14.1752C18.1496 12.1252 16.3621 10.3377 14.3121 10.8252C13.3496 11.0627 12.5621 11.8502 12.3247 12.8127C11.8372 14.8627 13.6246 16.6501 15.6746 16.1626C16.6496 15.9251 17.4371 15.1377 17.6621 14.1752Z" stroke="#391D2C" stroke-width="1.5" stroke-linecap="round" stroke-linejoin="round"/>
<path d="M22.5124 21.4875C24.6499 19.4875 25.9874 16.65 25.9874 13.4875C25.9874 7.41247 21.0625 2.5 15 2.5C8.93744 2.5 4.01245 7.42498 4.01245 13.4875C4.01245 16.6625 5.36245 19.525 7.52495 21.525" stroke="#391D2C" stroke-width="1.5" stroke-linecap="round" stroke-linejoin="round"/>
<path opacity="0.4" d="M9.99971 18.187C8.84971 16.962 8.13721 15.312 8.13721 13.487C8.13721 9.6995 11.2122 6.62451 14.9998 6.62451C18.7872 6.62451 21.8623 9.6995 21.8623 13.487C21.8623 15.312 21.1498 16.9495 19.9998 18.187" stroke="#391D2C" stroke-width="1.5" stroke-linecap="round" stroke-linejoin="round"/>
<path opacity="0.4" d="M12.8746 20.8246L11.0747 23.0621C9.64966 24.8496 10.9122 27.4871 13.1996 27.4871H16.7871C19.0746 27.4871 20.3496 24.8371 18.9121 23.0621L17.1121 20.8246C16.0371 19.4621 13.9621 19.4621 12.8746 20.8246Z" stroke="#391D2C" stroke-width="1.5" stroke-linecap="round" stroke-linejoin="round"/>
<path d="M769.5 11.25V8.75C769.5 5 772 2.5 775.75 2.5H788.25C792 2.5 794.5 5 794.5 8.75V11.25" stroke="#391D2C" stroke-width="1.5" stroke-miterlimit="10" stroke-linecap="round" stroke-linejoin="round"/>
<path d="M769.5 18.75V21.25C769.5 25 772 27.5 775.75 27.5H788.25C792 27.5 794.5 25 794.5 21.25V18.75" stroke="#391D2C" stroke-width="1.5" stroke-miterlimit="10" stroke-linecap="round" stroke-linejoin="round"/>
<g opacity="0.4">
<path d="M775.374 11.5752L781.999 15.4128L788.574 11.6002" stroke="#391D2C" stroke-width="1.5" stroke-linecap="round" stroke-linejoin="round"/>
<path d="M782 22.2129V15.4004" stroke="#391D2C" stroke-width="1.5" stroke-linecap="round" stroke-linejoin="round"/>
<path d="M780.45 7.8627L776.45 10.0877C775.55 10.5877 774.8 11.8502 774.8 12.8877V17.1252C774.8 18.1627 775.538 19.4252 776.45 19.9252L780.45 22.1502C781.3 22.6252 782.7 22.6252 783.563 22.1502L787.563 19.9252C788.463 19.4252 789.213 18.1627 789.213 17.1252V12.8877C789.213 11.8502 788.475 10.5877 787.563 10.0877L783.563 7.8627C782.7 7.3752 781.3 7.3752 780.45 7.8627Z" stroke="#391D2C" stroke-width="1.5" stroke-linecap="round" stroke-linejoin="round"/>
</g>
<path opacity="0.4" d="M283.5 10.625C283.5 15.1125 279.862 18.75 275.375 18.75C275.162 18.75 274.937 18.7375 274.725 18.725C274.412 14.7625 271.238 11.5875 267.275 11.275C267.262 11.0625 267.25 10.8375 267.25 10.625C267.25 6.1375 270.888 2.5 275.375 2.5C279.862 2.5 283.5 6.1375 283.5 10.625Z" stroke="#391D2C" stroke-width="1.5" stroke-linecap="round" stroke-linejoin="round"/>
<path d="M274.75 19.375C274.75 23.8625 271.112 27.5 266.625 27.5C262.138 27.5 258.5 23.8625 258.5 19.375C258.5 14.8875 262.138 11.25 266.625 11.25C266.838 11.25 267.062 11.2625 267.275 11.275C271.238 11.5875 274.412 14.7625 274.725 18.725C274.737 18.9375 274.75 19.1625 274.75 19.375Z" stroke="#391D2C" stroke-width="1.5" stroke-linecap="round" stroke-linejoin="round"/>
<path opacity="0.4" d="M265.525 18.275L266.625 16.25L267.725 18.275L269.75 19.375L267.725 20.475L266.625 22.5L265.525 20.475L263.5 19.375L265.525 18.275Z" stroke="#391D2C" stroke-width="1.5" stroke-linecap="round" stroke-linejoin="round"/>
</svg>
