<svg width="792" height="31" viewBox="0 0 792 31" fill="none" xmlns="http://www.w3.org/2000/svg">
<path d="M15 15C18.4518 15 21.25 12.2018 21.25 8.75C21.25 5.29822 18.4518 2.5 15 2.5C11.5482 2.5 8.75 5.29822 8.75 8.75C8.75 12.2018 11.5482 15 15 15Z" stroke="#391D2C" stroke-width="2"/>
<path d="M21.25 27.5H6.58195C5.07821 27.5 3.91475 26.182 4.10126 24.6899L4.58939 20.7849C4.82396 18.9082 6.41922 17.5 8.31044 17.5H8.75" stroke="#391D2C" stroke-width="2" stroke-linecap="round" stroke-linejoin="round"/>
<path d="M21.25 20.625L23.125 22.5L26.25 18.75" stroke="#391D2C" stroke-width="2" stroke-linecap="round" stroke-linejoin="round"/>
<path d="M268.786 3.17448C269.541 2.75499 270.459 2.75499 271.214 3.17447L280.607 8.39278C281.004 8.61324 281.25 9.03152 281.25 9.48547V19.779C281.25 20.6868 280.758 21.5235 279.964 21.9643L271.214 26.8255C270.459 27.245 269.541 27.245 268.786 26.8255L260.036 21.9643C259.242 21.5235 258.75 20.6868 258.75 19.779V9.48547C258.75 9.03152 258.996 8.61324 259.393 8.39278L268.786 3.17448Z" stroke="#391D2C" stroke-width="2" stroke-linecap="round" stroke-linejoin="round"/>
<path d="M258.75 8.75L270 15M270 15L281.25 8.75M270 15V26.875" stroke="#391D2C" stroke-width="2" stroke-linejoin="round"/>
<path d="M264.375 11.875L275.625 5.625" stroke="#391D2C" stroke-width="2" stroke-linecap="round" stroke-linejoin="round"/>
<path d="M262.5 15.4102L266.25 17.5" stroke="#391D2C" stroke-width="2" stroke-linecap="round" stroke-linejoin="round"/>
<path d="M518.672 7.32422C518.543 7.32422 518.438 7.42969 518.438 7.55859V8.96484C518.438 9.09375 518.543 9.19922 518.672 9.19922H529.922C530.051 9.19922 530.156 9.09375 530.156 8.96484V7.55859C530.156 7.42969 530.051 7.32422 529.922 7.32422H518.672ZM524.062 11.543H518.672C518.543 11.543 518.438 11.6484 518.438 11.7773V13.1836C518.438 13.3125 518.543 13.418 518.672 13.418H524.062C524.191 13.418 524.297 13.3125 524.297 13.1836V11.7773C524.297 11.6484 524.191 11.543 524.062 11.543ZM522.656 24.9609H516.094V4.33594H532.5V13.7109C532.5 13.8398 532.605 13.9453 532.734 13.9453H534.375C534.504 13.9453 534.609 13.8398 534.609 13.7109V3.16406C534.609 2.64551 534.19 2.22656 533.672 2.22656H514.922C514.403 2.22656 513.984 2.64551 513.984 3.16406V26.1328C513.984 26.6514 514.403 27.0703 514.922 27.0703H522.656C522.785 27.0703 522.891 26.9648 522.891 26.8359V25.1953C522.891 25.0664 522.785 24.9609 522.656 24.9609ZM535.547 22.3828H531.328V21.3105C532.685 20.9062 533.672 19.6523 533.672 18.1641C533.672 16.3506 532.204 14.8828 530.391 14.8828C528.577 14.8828 527.109 16.3506 527.109 18.1641C527.109 19.6494 528.097 20.9062 529.453 21.3105V22.3828H525.234C524.977 22.3828 524.766 22.5938 524.766 22.8516V27.3047C524.766 27.5625 524.977 27.7734 525.234 27.7734H535.547C535.805 27.7734 536.016 27.5625 536.016 27.3047V22.8516C536.016 22.5938 535.805 22.3828 535.547 22.3828ZM528.926 18.1641C528.926 17.3555 529.582 16.6992 530.391 16.6992C531.199 16.6992 531.855 17.3555 531.855 18.1641C531.855 18.9727 531.199 19.6289 530.391 19.6289C529.582 19.6289 528.926 18.9727 528.926 18.1641ZM534.199 25.957H526.582V24.1992H534.199V25.957Z" fill="#391D2C"/>
<path d="M788.016 20.9219H786.434V16.8203H777.996V14.125H784.969C785.227 14.125 785.438 13.9141 785.438 13.6562V5.92188C785.438 5.66406 785.227 5.45312 784.969 5.45312H769.031C768.773 5.45312 768.562 5.66406 768.562 5.92188V13.6562C768.562 13.9141 768.773 14.125 769.031 14.125H776.004V16.8203H767.566V20.9219H765.984C765.855 20.9219 765.75 21.0273 765.75 21.1562V26.3125C765.75 26.4414 765.855 26.5469 765.984 26.5469H771.141C771.27 26.5469 771.375 26.4414 771.375 26.3125V21.1562C771.375 21.0273 771.27 20.9219 771.141 20.9219H769.559V18.8125H776.004V20.9219H774.422C774.293 20.9219 774.188 21.0273 774.188 21.1562V26.3125C774.188 26.4414 774.293 26.5469 774.422 26.5469H779.578C779.707 26.5469 779.812 26.4414 779.812 26.3125V21.1562C779.812 21.0273 779.707 20.9219 779.578 20.9219H777.996V18.8125H784.441V20.9219H782.859C782.73 20.9219 782.625 21.0273 782.625 21.1562V26.3125C782.625 26.4414 782.73 26.5469 782.859 26.5469H788.016C788.145 26.5469 788.25 26.4414 788.25 26.3125V21.1562C788.25 21.0273 788.145 20.9219 788.016 20.9219ZM769.5 24.5928C769.5 24.6367 769.465 24.6719 769.421 24.6719H767.701C767.657 24.6719 767.622 24.6367 767.622 24.5928V22.873C767.622 22.8291 767.657 22.7939 767.701 22.7939H769.421C769.465 22.7939 769.5 22.8291 769.5 22.873V24.5928ZM777.938 24.5928C777.938 24.6367 777.902 24.6719 777.858 24.6719H776.139C776.095 24.6719 776.06 24.6367 776.06 24.5928V22.873C776.06 22.8291 776.095 22.7939 776.139 22.7939H777.858C777.902 22.7939 777.938 22.8291 777.938 22.873V24.5928ZM770.438 12.25V7.32812H783.562V12.25H770.438ZM786.375 24.5928C786.375 24.6367 786.34 24.6719 786.296 24.6719H784.576C784.532 24.6719 784.497 24.6367 784.497 24.5928V22.873C784.497 22.8291 784.532 22.7939 784.576 22.7939H786.296C786.34 22.7939 786.375 22.8291 786.375 22.873V24.5928ZM772.547 9.78906C772.547 10.0999 772.67 10.3979 772.89 10.6177C773.11 10.8375 773.408 10.9609 773.719 10.9609C774.03 10.9609 774.328 10.8375 774.547 10.6177C774.767 10.3979 774.891 10.0999 774.891 9.78906C774.891 9.47826 774.767 9.18019 774.547 8.96042C774.328 8.74065 774.03 8.61719 773.719 8.61719C773.408 8.61719 773.11 8.74065 772.89 8.96042C772.67 9.18019 772.547 9.47826 772.547 9.78906Z" fill="#391D2C"/>
</svg>
