<svg width="791" height="27" viewBox="0 0 791 27" fill="none" xmlns="http://www.w3.org/2000/svg">
<path d="M19.0334 9.37374C20.9194 9.37374 22.4482 7.94693 22.4482 6.18687C22.4482 4.42681 20.9194 3 19.0334 3C17.1474 3 15.6186 4.42681 15.6186 6.18687C15.6186 7.94693 17.1474 9.37374 19.0334 9.37374Z" stroke="#391D2C" stroke-width="2"/>
<path d="M6.30995 9.37374C8.19592 9.37374 9.72479 7.94693 9.72479 6.18687C9.72479 4.42681 8.19592 3 6.30995 3C4.42398 3 2.89511 4.42681 2.89511 6.18687C2.89511 7.94693 4.42398 9.37374 6.30995 9.37374Z" stroke="#391D2C" stroke-width="2"/>
<path d="M24.3142 19.6685L23.7532 16.3177C23.4934 14.7664 22.0617 13.6228 20.3792 13.6228H19.0334H17.6876C16.0051 13.6228 14.5734 14.7664 14.3136 16.3177L13.7526 19.6685C13.5369 20.9571 14.6045 22.1211 16.0019 22.1211H22.0649C23.4623 22.1211 24.5299 20.9571 24.3142 19.6685Z" stroke="#391D2C" stroke-width="2" stroke-linecap="round" stroke-linejoin="round"/>
<path d="M9.72479 13.6228H6.30995H4.9641C3.28167 13.6228 1.84992 14.7664 1.59019 16.3177L1.02916 19.6685C0.813437 20.9571 1.88101 22.1211 3.27844 22.1211H8.58651" stroke="#391D2C" stroke-width="2" stroke-linecap="round" stroke-linejoin="round"/>
<path d="M782.501 7H785.001C786.106 7 787.001 7.89543 787.001 9V22C787.001 23.1046 786.106 24 785.001 24H773.001C771.897 24 771.001 23.1046 771.001 22V9C771.001 7.89543 771.897 7 773.001 7H775.501" stroke="#391D2C" stroke-width="2" stroke-linecap="round" stroke-linejoin="round"/>
<path d="M775.623 6.51493C775.845 5.62459 776.645 5 777.563 5H780.44C781.358 5 782.157 5.62459 782.38 6.51493L783.001 9H775.001L775.623 6.51493Z" stroke="#391D2C" stroke-width="2" stroke-linecap="round" stroke-linejoin="round"/>
<path d="M776.001 15H782.001" stroke="#391D2C" stroke-width="2" stroke-linecap="round"/>
<path d="M776.001 19H782.001" stroke="#391D2C" stroke-width="2" stroke-linecap="round"/>
<rect width="24" height="24" transform="translate(259.001)" fill="white"/>
<path d="M261.001 6C261.001 3.79086 262.792 2 265.001 2H277.001C279.21 2 281.001 3.79086 281.001 6V11H261.001V6Z" stroke="#391D2C" stroke-width="2" stroke-linecap="round" stroke-linejoin="round"/>
<path d="M277.501 16.5H274.501" stroke="#391D2C" stroke-width="2" stroke-linecap="round"/>
<path d="M271.001 11H281.001V18C281.001 20.2091 279.21 22 277.001 22H271.001V11Z" stroke="#391D2C" stroke-width="2" stroke-linecap="round" stroke-linejoin="round"/>
<path d="M271.001 11H261.001V18C261.001 20.2091 262.792 22 265.001 22H271.001V11Z" stroke="#391D2C" stroke-width="2" stroke-linecap="round" stroke-linejoin="round"/>
<path d="M264.501 18L266.001 16.5M266.001 16.5L267.501 15M266.001 16.5L267.501 18M266.001 16.5L264.501 15" stroke="#391D2C" stroke-width="2" stroke-linecap="round"/>
<rect width="24" height="24" transform="translate(511.001 2)" fill="white"/>
<path d="M532.233 20.907L531.291 15.0945C531.277 15.0031 531.197 14.9375 531.106 14.9375H524.975C524.883 14.9375 524.804 15.0031 524.79 15.0945L523.847 20.907C523.845 20.9164 523.845 20.9281 523.845 20.9375C523.845 21.0406 523.929 21.125 524.033 21.125H532.048C532.058 21.125 532.069 21.125 532.079 21.1227C532.179 21.1063 532.25 21.0102 532.233 20.907ZM521.213 15.0945C521.199 15.0031 521.119 14.9375 521.028 14.9375H514.897C514.805 14.9375 514.726 15.0031 514.712 15.0945L513.769 20.907C513.767 20.9164 513.767 20.9281 513.767 20.9375C513.767 21.0406 513.851 21.125 513.954 21.125H521.97C521.979 21.125 521.991 21.125 522.001 21.1227C522.104 21.1063 522.172 21.0102 522.155 20.907L521.213 15.0945ZM519.017 13.0625H527.033C527.042 13.0625 527.054 13.0625 527.063 13.0602C527.166 13.0437 527.234 12.9477 527.218 12.8445L526.276 7.03203C526.262 6.94062 526.182 6.875 526.09 6.875H519.959C519.868 6.875 519.788 6.94062 519.774 7.03203L518.832 12.8445C518.829 12.8539 518.829 12.8656 518.829 12.875C518.829 12.9781 518.914 13.0625 519.017 13.0625Z" fill="#391D2C"/>
</svg>
